# xmcd CD database file
#
# Track frame offsets:
#	150
#	24466
#	42392
#	60084
#	71229
#	96477
#	119383
#	133250
#	162371
#	181105
#	202205
#
# Disc length: 3269 seconds
#
# Revision: 0
# Processed by: cddbd v1.5.1PL2 Copyright (c) Steve Scherf et al.
# Submitted via: CDex 1.51
#
DISCID=a10cc30b
DTITLE=Andrew McCormack - Telescope
DYEAR=2005
DGENRE=Jazz
TTITLE0=Telescope
TTITLE1=Sweet bagels
TTITLE2=Skin wah
TTITLE3=Invention (Everything happens to me)
TTITLE4=Better than people
TTITLE5=Open letter
TTITLE6=Facing the fine
TTITLE7=Juliette
TTITLE8=Code food
TTITLE9=Saudade
TTITLE10=Happy Hour
EXTD=YEAR: 2005
EXTT0=
EXTT1=
EXTT2=
EXTT3=
EXTT4=
EXTT5=
EXTT6=
EXTT7=
EXTT8=
EXTT9=
EXTT10=
PLAYORDER=
